<?xml version="1.0" standalone="no"?>
<!DOCTYPE svg PUBLIC "-//W3C//DTD SVG 20010904//EN"
 "http://www.w3.org/TR/2001/REC-SVG-20010904/DTD/svg10.dtd">
<svg version="1.0" xmlns="http://www.w3.org/2000/svg"
 width="700.000000pt" height="700.000000pt" viewBox="0 0 700.000000 700.000000"
 preserveAspectRatio="xMidYMid meet">
<metadata>
Created by potrace 1.14, written by Peter Selinger 2001-2017
</metadata>
<g transform="translate(0.000000,700.000000) scale(0.100000,-0.100000)"
fill="#000000" stroke="none">
<path d="M1129 6985 c-106 -18 -245 -59 -334 -100 -68 -31 -78 -39 -95 -78
-24 -55 -13 -104 31 -141 46 -39 82 -38 183 5 142 60 321 92 477 84 261 -13
492 -109 696 -289 34 -30 76 -57 93 -61 90 -20 171 74 136 158 -30 72 -210
212 -381 297 -199 98 -375 139 -600 138 -71 0 -164 -6 -206 -13z"/>
<path d="M5369 6996 c-2 -2 -24 -6 -49 -9 -140 -18 -296 -68 -431 -138 -154
-81 -327 -219 -354 -283 -25 -58 2 -123 62 -151 55 -27 91 -14 186 68 308 263
718 343 1085 212 37 -13 91 -33 121 -43 61 -22 99 -17 138 20 50 47 46 140 -8
179 -69 49 -251 110 -403 134 -71 12 -337 20 -347 11z"/>
<path d="M215 6312 c-59 -14 -90 -62 -143 -217 -54 -160 -67 -242 -67 -435 0
-130 5 -197 18 -259 25 -117 70 -247 117 -341 36 -72 135 -226 163 -255 7 -6
30 -31 51 -55 22 -24 54 -51 72 -61 79 -40 175 21 172 109 -1 36 -10 50 -105
167 -262 319 -323 748 -161 1129 34 78 38 125 14 161 -28 43 -86 68 -131 57z"/>
<path d="M6573 6308 c-17 -4 -43 -22 -57 -39 -35 -41 -34 -92 3 -178 126 -297
116 -632 -29 -923 -46 -93 -84 -149 -162 -239 -32 -37 -63 -81 -69 -96 -33
-87 53 -177 145 -152 107 29 324 359 391 594 89 308 67 651 -58 926 -44 97
-89 126 -164 107z"/>
<path d="M1300 6150 c-171 -30 -324 -146 -399 -303 -46 -96 -63 -174 -57 -274
9 -141 64 -261 166 -363 75 -74 145 -112 292 -158 393 -124 713 -390 907 -753
271 -507 232 -1136 -97 -1608 -67 -95 -76 -106 -192 -222 -172 -171 -363 -286
-620 -372 -166 -56 -218 -84 -295 -163 -267 -270 -191 -721 149 -884 102 -48
159 -60 266 -55 176 9 327 90 422 227 56 81 60 89 108 236 180 548 615 936
1180 1053 149 31 435 34 570 5 225 -46 449 -140 615 -257 50 -35 142 -116 205
-179 183 -183 295 -368 384 -635 27 -81 62 -163 83 -195 87 -133 218 -221 372
-250 73 -14 123 -12 206 5 241 51 417 249 441 494 14 153 -47 320 -158 433
-81 82 -129 109 -280 159 -268 88 -455 199 -641 378 -245 236 -416 580 -455
916 -9 80 -8 325 2 400 34 261 155 543 321 750 197 246 443 415 751 516 71 23
154 56 184 73 114 63 224 206 261 341 18 65 18 216 0 280 -51 184 -192 328
-381 391 -68 22 -224 25 -295 5 -124 -35 -238 -114 -308 -213 -53 -77 -68
-108 -102 -223 -102 -338 -344 -658 -642 -848 -139 -89 -342 -175 -488 -207
-336 -75 -699 -37 -1000 104 -405 191 -689 517 -830 956 -47 144 -83 208 -159
285 -126 124 -314 185 -486 155z"/>
<path d="M435 2466 c-67 -29 -211 -211 -288 -364 -101 -202 -137 -345 -142
-572 -3 -109 0 -192 9 -245 33 -194 109 -396 162 -427 61 -36 116 -27 160 25
22 26 25 38 21 81 -2 28 -18 83 -34 121 -36 84 -61 181 -73 278 -8 72 -5 246
5 302 25 133 70 259 129 363 46 81 65 108 142 199 34 40 65 86 69 103 20 90
-77 173 -160 136z"/>
<path d="M6345 2472 c-58 -13 -101 -79 -90 -138 3 -20 26 -57 57 -91 296 -338
375 -776 211 -1173 -20 -47 -35 -100 -35 -119 3 -93 109 -146 188 -94 46 30
113 198 150 374 19 90 26 355 12 457 -28 198 -116 414 -237 582 -121 169 -184
218 -256 202z"/>
<path d="M2155 738 c-11 -6 -42 -31 -70 -56 -153 -136 -355 -237 -547 -273
-85 -15 -258 -20 -338 -8 -95 13 -204 44 -298 82 -69 29 -89 33 -120 26 -42
-9 -91 -58 -93 -92 -4 -78 18 -114 93 -146 101 -45 114 -50 193 -72 140 -38
230 -48 395 -44 154 3 188 7 265 27 22 5 49 12 59 14 45 8 128 40 221 84 140
65 257 147 373 260 21 20 41 73 37 96 -2 10 -4 24 -4 31 -1 19 -45 61 -75 73
-35 13 -66 12 -91 -2z"/>
<path d="M4587 731 c-85 -56 -82 -139 8 -222 190 -176 438 -298 698 -343 110
-19 301 -20 417 -2 187 29 399 108 434 161 22 34 23 98 2 130 -42 65 -98 72
-206 26 -381 -162 -822 -96 -1138 172 -119 100 -159 115 -215 78z"/>
</g>
</svg>
